<svg width="30" height="30" viewBox="0 0 30 30" fill="none" xmlns="http://www.w3.org/2000/svg">
<rect width="30" height="30" fill="#F5F5F5"/>
<g filter="url(#filter0_d_0_1)">
<mask id="path-1-inside-1_0_1" fill="white">
<path d="M-130 -21H260V51H-130V-21Z"/>
</mask>
<path d="M-130 -21H260V51H-130V-21Z" fill="white"/>
<path d="M-130 -20H260V-22H-130V-20Z" fill="#D9D9D9" fill-opacity="0.6" mask="url(#path-1-inside-1_0_1)"/>
</g>
<mask id="path-3-inside-2_0_1" fill="white">
<path d="M6 30L8.25 22.9688C8.475 22.25 8.8375 21.6794 9.3375 21.2569C9.8375 20.8344 10.4 20.6238 11.025 20.625H13.5V13.0781C9.675 12.9219 6.4685 12.2188 3.8805 10.9688C1.2925 9.71875 -0.000999421 8.25 5.79374e-07 6.5625C5.79374e-07 4.75 1.4625 3.20313 4.3875 1.92188C7.3125 0.640625 10.85 0 15 0C19.175 0 22.719 0.640625 25.632 1.92188C28.545 3.20313 30.001 4.75 30 6.5625C30 8.25 28.706 9.71875 26.118 10.9688C23.53 12.2188 20.324 12.9219 16.5 13.0781V20.625H18.975C19.575 20.625 20.1315 20.8362 20.6445 21.2587C21.1575 21.6812 21.526 22.2512 21.75 22.9688L24 30H21L19.2 24.375H10.8L9 30H6Z"/>
</mask>
<path d="M6 30L8.25 22.9688C8.475 22.25 8.8375 21.6794 9.3375 21.2569C9.8375 20.8344 10.4 20.6238 11.025 20.625H13.5V13.0781C9.675 12.9219 6.4685 12.2188 3.8805 10.9688C1.2925 9.71875 -0.000999421 8.25 5.79374e-07 6.5625C5.79374e-07 4.75 1.4625 3.20313 4.3875 1.92188C7.3125 0.640625 10.85 0 15 0C19.175 0 22.719 0.640625 25.632 1.92188C28.545 3.20313 30.001 4.75 30 6.5625C30 8.25 28.706 9.71875 26.118 10.9688C23.53 12.2188 20.324 12.9219 16.5 13.0781V20.625H18.975C19.575 20.625 20.1315 20.8362 20.6445 21.2587C21.1575 21.6812 21.526 22.2512 21.75 22.9688L24 30H21L19.2 24.375H10.8L9 30H6Z" stroke="black" stroke-width="6" mask="url(#path-3-inside-2_0_1)"/>
<defs>
<filter id="filter0_d_0_1" x="-134" y="-21" width="398" height="80" filterUnits="userSpaceOnUse" color-interpolation-filters="sRGB">
<feFlood flood-opacity="0" result="BackgroundImageFix"/>
<feColorMatrix in="SourceAlpha" type="matrix" values="0 0 0 0 0 0 0 0 0 0 0 0 0 0 0 0 0 0 127 0" result="hardAlpha"/>
<feOffset dy="4"/>
<feGaussianBlur stdDeviation="2"/>
<feComposite in2="hardAlpha" operator="out"/>
<feColorMatrix type="matrix" values="0 0 0 0 0 0 0 0 0 0 0 0 0 0 0 0 0 0 0.25 0"/>
<feBlend mode="normal" in2="BackgroundImageFix" result="effect1_dropShadow_0_1"/>
<feBlend mode="normal" in="SourceGraphic" in2="effect1_dropShadow_0_1" result="shape"/>
</filter>
</defs>
</svg>
