<svg width="30" height="30" viewBox="0 0 30 30" fill="none" xmlns="http://www.w3.org/2000/svg">
<mask id="path-1-inside-1_288_115" fill="white">
<path d="M28.98 11.325L26.145 10.38L27.48 7.71C27.6153 7.43053 27.6606 7.11595 27.6095 6.80966C27.5585 6.50337 27.4137 6.22048 27.195 6L24 2.805C23.7784 2.58313 23.4927 2.43631 23.1833 2.38519C22.8739 2.33407 22.5562 2.38122 22.275 2.52L19.605 3.855L18.66 1.02C18.5602 0.724493 18.3708 0.467443 18.118 0.284627C17.8653 0.101811 17.5619 0.00232151 17.25 5.0003e-06H12.75C12.4355 -0.000806742 12.1288 0.0972334 11.8731 0.280268C11.6173 0.463302 11.4256 0.722073 11.325 1.02L10.38 3.855L7.71 2.52C7.43053 2.38467 7.11595 2.33941 6.80966 2.39046C6.50337 2.44151 6.22048 2.58635 6 2.805L2.805 6C2.58313 6.22165 2.43631 6.50727 2.38519 6.81669C2.33407 7.12611 2.38122 7.44377 2.52 7.725L3.855 10.395L1.02 11.34C0.724493 11.4398 0.467443 11.6292 0.284627 11.882C0.101811 12.1347 0.00232151 12.4381 5.0003e-06 12.75V17.25C-0.000806742 17.5645 0.0972334 17.8712 0.280268 18.1269C0.463302 18.3827 0.722073 18.5744 1.02 18.675L3.855 19.62L2.52 22.29C2.38467 22.5695 2.33941 22.8841 2.39046 23.1903C2.44151 23.4966 2.58635 23.7795 2.805 24L6 27.195C6.22165 27.4169 6.50727 27.5637 6.81669 27.6148C7.12611 27.6659 7.44377 27.6188 7.725 27.48L10.395 26.145L11.34 28.98C11.4406 29.2779 11.6323 29.5367 11.8881 29.7197C12.1438 29.9028 12.4505 30.0008 12.765 30H17.265C17.5795 30.0008 17.8862 29.9028 18.1419 29.7197C18.3977 29.5367 18.5894 29.2779 18.69 28.98L19.635 26.145L22.305 27.48C22.5827 27.6119 22.8942 27.6553 23.1974 27.6043C23.5005 27.5534 23.7807 27.4105 24 27.195L27.195 24C27.4169 23.7784 27.5637 23.4927 27.6148 23.1833C27.6659 22.8739 27.6188 22.5562 27.48 22.275L26.145 19.605L28.98 18.66C29.2755 18.5602 29.5326 18.3708 29.7154 18.118C29.8982 17.8653 29.9977 17.5619 30 17.25V12.75C30.0008 12.4355 29.9028 12.1288 29.7197 11.8731C29.5367 11.6173 29.2779 11.4256 28.98 11.325ZM27 16.17L25.2 16.77C24.7861 16.9043 24.4063 17.127 24.0871 17.4226C23.7678 17.7183 23.5167 18.0799 23.3512 18.4824C23.1856 18.8848 23.1096 19.3184 23.1284 19.7532C23.1472 20.1879 23.2604 20.6134 23.46 21L24.315 22.71L22.665 24.36L21 23.46C20.6153 23.2684 20.194 23.1616 19.7645 23.1469C19.335 23.1323 18.9073 23.2101 18.5105 23.3751C18.1136 23.5401 17.7569 23.7884 17.4644 24.1033C17.1719 24.4181 16.9504 24.7921 16.815 25.2L16.215 27H13.83L13.23 25.2C13.0957 24.7861 12.873 24.4063 12.5773 24.0871C12.2817 23.7678 11.9201 23.5167 11.5176 23.3512C11.1152 23.1856 10.6816 23.1096 10.2468 23.1284C9.8121 23.1472 9.38665 23.2604 9 23.46L7.29 24.315L5.64 22.665L6.54 21C6.73964 20.6134 6.85278 20.1879 6.87157 19.7532C6.89036 19.3184 6.81435 18.8848 6.64881 18.4824C6.48327 18.0799 6.23217 17.7183 5.91292 17.4226C5.59367 17.127 5.21392 16.9043 4.8 16.77L3 16.17V13.83L4.8 13.23C5.21392 13.0957 5.59367 12.873 5.91292 12.5773C6.23217 12.2817 6.48327 11.9201 6.64881 11.5176C6.81435 11.1152 6.89036 10.6816 6.87157 10.2468C6.85278 9.8121 6.73964 9.38665 6.54 9L5.685 7.335L7.335 5.685L9 6.54C9.38665 6.73964 9.8121 6.85278 10.2468 6.87157C10.6816 6.89036 11.1152 6.81435 11.5176 6.64881C11.9201 6.48327 12.2817 6.23217 12.5773 5.91292C12.873 5.59367 13.0957 5.21392 13.23 4.8L13.83 3H16.17L16.77 4.8C16.9043 5.21392 17.127 5.59367 17.4226 5.91292C17.7183 6.23217 18.0799 6.48327 18.4824 6.64881C18.8848 6.81435 19.3184 6.89036 19.7532 6.87157C20.1879 6.85278 20.6134 6.73964 21 6.54L22.71 5.685L24.36 7.335L23.46 9C23.2684 9.38467 23.1616 9.80602 23.1469 10.2355C23.1323 10.665 23.2101 11.0927 23.3751 11.4895C23.5401 11.8864 23.7884 12.2431 24.1033 12.5356C24.4181 12.8281 24.7921 13.0496 25.2 13.185L27 13.785V16.17ZM15 9C13.8133 9 12.6533 9.3519 11.6666 10.0112C10.6799 10.6705 9.91085 11.6075 9.45672 12.7039C9.0026 13.8003 8.88378 15.0067 9.11529 16.1705C9.3468 17.3344 9.91825 18.4035 10.7574 19.2426C11.5965 20.0818 12.6656 20.6532 13.8295 20.8847C14.9933 21.1162 16.1997 20.9974 17.2961 20.5433C18.3925 20.0891 19.3295 19.3201 19.9888 18.3334C20.6481 17.3467 21 16.1867 21 15C21 13.4087 20.3679 11.8826 19.2426 10.7574C18.1174 9.63214 16.5913 9 15 9ZM15 18C14.4067 18 13.8266 17.8241 13.3333 17.4944C12.8399 17.1648 12.4554 16.6962 12.2284 16.148C12.0013 15.5999 11.9419 14.9967 12.0576 14.4147C12.1734 13.8328 12.4591 13.2982 12.8787 12.8787C13.2982 12.4591 13.8328 12.1734 14.4147 12.0576C14.9967 11.9419 15.5999 12.0013 16.148 12.2284C16.6962 12.4554 17.1648 12.8399 17.4944 13.3333C17.8241 13.8266 18 14.4067 18 15C18 15.7956 17.6839 16.5587 17.1213 17.1213C16.5587 17.6839 15.7956 18 15 18Z"/>
</mask>
<path d="M28.98 11.325L26.145 10.38L27.48 7.71C27.6153 7.43053 27.6606 7.11595 27.6095 6.80966C27.5585 6.50337 27.4137 6.22048 27.195 6L24 2.805C23.7784 2.58313 23.4927 2.43631 23.1833 2.38519C22.8739 2.33407 22.5562 2.38122 22.275 2.52L19.605 3.855L18.66 1.02C18.5602 0.724493 18.3708 0.467443 18.118 0.284627C17.8653 0.101811 17.5619 0.00232151 17.25 5.0003e-06H12.75C12.4355 -0.000806742 12.1288 0.0972334 11.8731 0.280268C11.6173 0.463302 11.4256 0.722073 11.325 1.02L10.38 3.855L7.71 2.52C7.43053 2.38467 7.11595 2.33941 6.80966 2.39046C6.50337 2.44151 6.22048 2.58635 6 2.805L2.805 6C2.58313 6.22165 2.43631 6.50727 2.38519 6.81669C2.33407 7.12611 2.38122 7.44377 2.52 7.725L3.855 10.395L1.02 11.34C0.724493 11.4398 0.467443 11.6292 0.284627 11.882C0.101811 12.1347 0.00232151 12.4381 5.0003e-06 12.75V17.25C-0.000806742 17.5645 0.0972334 17.8712 0.280268 18.1269C0.463302 18.3827 0.722073 18.5744 1.02 18.675L3.855 19.62L2.52 22.29C2.38467 22.5695 2.33941 22.8841 2.39046 23.1903C2.44151 23.4966 2.58635 23.7795 2.805 24L6 27.195C6.22165 27.4169 6.50727 27.5637 6.81669 27.6148C7.12611 27.6659 7.44377 27.6188 7.725 27.48L10.395 26.145L11.34 28.98C11.4406 29.2779 11.6323 29.5367 11.8881 29.7197C12.1438 29.9028 12.4505 30.0008 12.765 30H17.265C17.5795 30.0008 17.8862 29.9028 18.1419 29.7197C18.3977 29.5367 18.5894 29.2779 18.69 28.98L19.635 26.145L22.305 27.48C22.5827 27.6119 22.8942 27.6553 23.1974 27.6043C23.5005 27.5534 23.7807 27.4105 24 27.195L27.195 24C27.4169 23.7784 27.5637 23.4927 27.6148 23.1833C27.6659 22.8739 27.6188 22.5562 27.48 22.275L26.145 19.605L28.98 18.66C29.2755 18.5602 29.5326 18.3708 29.7154 18.118C29.8982 17.8653 29.9977 17.5619 30 17.25V12.75C30.0008 12.4355 29.9028 12.1288 29.7197 11.8731C29.5367 11.6173 29.2779 11.4256 28.98 11.325ZM27 16.17L25.2 16.77C24.7861 16.9043 24.4063 17.127 24.0871 17.4226C23.7678 17.7183 23.5167 18.0799 23.3512 18.4824C23.1856 18.8848 23.1096 19.3184 23.1284 19.7532C23.1472 20.1879 23.2604 20.6134 23.46 21L24.315 22.71L22.665 24.36L21 23.46C20.6153 23.2684 20.194 23.1616 19.7645 23.1469C19.335 23.1323 18.9073 23.2101 18.5105 23.3751C18.1136 23.5401 17.7569 23.7884 17.4644 24.1033C17.1719 24.4181 16.9504 24.7921 16.815 25.2L16.215 27H13.83L13.23 25.2C13.0957 24.7861 12.873 24.4063 12.5773 24.0871C12.2817 23.7678 11.9201 23.5167 11.5176 23.3512C11.1152 23.1856 10.6816 23.1096 10.2468 23.1284C9.8121 23.1472 9.38665 23.2604 9 23.46L7.29 24.315L5.64 22.665L6.54 21C6.73964 20.6134 6.85278 20.1879 6.87157 19.7532C6.89036 19.3184 6.81435 18.8848 6.64881 18.4824C6.48327 18.0799 6.23217 17.7183 5.91292 17.4226C5.59367 17.127 5.21392 16.9043 4.8 16.77L3 16.17V13.83L4.8 13.23C5.21392 13.0957 5.59367 12.873 5.91292 12.5773C6.23217 12.2817 6.48327 11.9201 6.64881 11.5176C6.81435 11.1152 6.89036 10.6816 6.87157 10.2468C6.85278 9.8121 6.73964 9.38665 6.54 9L5.685 7.335L7.335 5.685L9 6.54C9.38665 6.73964 9.8121 6.85278 10.2468 6.87157C10.6816 6.89036 11.1152 6.81435 11.5176 6.64881C11.9201 6.48327 12.2817 6.23217 12.5773 5.91292C12.873 5.59367 13.0957 5.21392 13.23 4.8L13.83 3H16.17L16.77 4.8C16.9043 5.21392 17.127 5.59367 17.4226 5.91292C17.7183 6.23217 18.0799 6.48327 18.4824 6.64881C18.8848 6.81435 19.3184 6.89036 19.7532 6.87157C20.1879 6.85278 20.6134 6.73964 21 6.54L22.71 5.685L24.36 7.335L23.46 9C23.2684 9.38467 23.1616 9.80602 23.1469 10.2355C23.1323 10.665 23.2101 11.0927 23.3751 11.4895C23.5401 11.8864 23.7884 12.2431 24.1033 12.5356C24.4181 12.8281 24.7921 13.0496 25.2 13.185L27 13.785V16.17ZM15 9C13.8133 9 12.6533 9.3519 11.6666 10.0112C10.6799 10.6705 9.91085 11.6075 9.45672 12.7039C9.0026 13.8003 8.88378 15.0067 9.11529 16.1705C9.3468 17.3344 9.91825 18.4035 10.7574 19.2426C11.5965 20.0818 12.6656 20.6532 13.8295 20.8847C14.9933 21.1162 16.1997 20.9974 17.2961 20.5433C18.3925 20.0891 19.3295 19.3201 19.9888 18.3334C20.6481 17.3467 21 16.1867 21 15C21 13.4087 20.3679 11.8826 19.2426 10.7574C18.1174 9.63214 16.5913 9 15 9ZM15 18C14.4067 18 13.8266 17.8241 13.3333 17.4944C12.8399 17.1648 12.4554 16.6962 12.2284 16.148C12.0013 15.5999 11.9419 14.9967 12.0576 14.4147C12.1734 13.8328 12.4591 13.2982 12.8787 12.8787C13.2982 12.4591 13.8328 12.1734 14.4147 12.0576C14.9967 11.9419 15.5999 12.0013 16.148 12.2284C16.6962 12.4554 17.1648 12.8399 17.4944 13.3333C17.8241 13.8266 18 14.4067 18 15C18 15.7956 17.6839 16.5587 17.1213 17.1213C16.5587 17.6839 15.7956 18 15 18Z" fill="#3A70FF" stroke="#3A70FF" stroke-width="2" mask="url(#path-1-inside-1_288_115)"/>
</svg>
