<svg width="30" height="30" viewBox="0 0 30 30" fill="none" xmlns="http://www.w3.org/2000/svg">
<path d="M6.33334 3.31779L6.3335 3.31758C6.71979 2.81802 7.31353 2.35693 8.09357 2.02065L8.09376 2.02057C8.61284 1.79671 9.29131 1.65255 10.4077 1.57697C11.5329 1.5008 12.9755 1.5 14.9998 1.5C17.024 1.5 18.4667 1.5008 19.5919 1.57697C20.7082 1.65255 21.3867 1.79671 21.9058 2.02057L21.906 2.02065C22.686 2.35693 23.2797 2.81802 23.666 3.31758L23.6662 3.31779C23.8732 3.58542 24.0285 3.94449 24.1173 4.67641C24.2115 5.45203 24.2141 6.46718 24.2141 8V11.305C23.7096 11.3 23.1894 11.3 22.6627 11.3H22.6391H7.36046H7.33676C6.80939 11.3 6.28942 11.3 5.78545 11.305V8C5.78545 6.46718 5.78802 5.45203 5.8822 4.67641C5.97107 3.94449 6.12631 3.58542 6.33334 3.31779ZM2.67836 20.784L2.72291 19.2863C1.90855 19.262 1.60878 19.1858 1.50452 19.145C1.49711 19.0516 1.49748 18.906 1.51558 18.6706C1.53429 18.4272 1.56697 18.1433 1.60975 17.7744L1.61019 17.7705C1.7076 16.911 1.89266 16.6506 2.09437 16.4784L2.09495 16.4779C2.31508 16.2898 2.6837 16.1098 3.57476 16.0074C4.48819 15.9023 5.70941 15.9 7.51046 15.9H22.4891C24.2901 15.9 25.5113 15.9023 26.4248 16.0074C27.3158 16.1098 27.6845 16.2898 27.9046 16.4779L27.9069 16.4799C28.1068 16.65 28.2921 16.909 28.3917 17.7724C28.4339 18.1411 28.4663 18.4248 28.4847 18.6683C28.5027 18.905 28.5029 19.0512 28.4953 19.1449C28.3912 19.1857 28.0916 19.262 27.2766 19.2863L25.8212 19.3296V20.7856V28.491C25.7887 28.4966 25.7526 28.5 25.7141 28.5C25.6755 28.5 25.6394 28.4966 25.6069 28.491V20.8V19.3H24.1069H5.8926H4.3926V20.8V28.491C4.3601 28.4966 4.32402 28.5 4.28545 28.5C4.24689 28.5 4.21081 28.4966 4.17831 28.491V22.3309V20.7856V20.784H2.67836Z" stroke="#3A70FF" stroke-width="3"/>
</svg>
