<svg width="30" height="30" viewBox="0 0 30 30" fill="none" xmlns="http://www.w3.org/2000/svg">
<path d="M18.0201 1.5342L18.02 1.53421L18.0239 1.53724L28.02 9.41477C28.0206 9.41525 28.0212 9.41573 28.0218 9.41621C28.4941 9.79635 28.8675 10.259 29.1208 10.7714C29.3744 11.2842 29.5028 11.8369 29.4999 12.3935V12.3961V25.5054C29.4999 26.5466 29.0403 27.5575 28.2012 28.3117C27.3604 29.0676 26.2096 29.5 25 29.5H5.00012C3.79048 29.5 2.6397 29.0676 1.79888 28.3117C0.959811 27.5575 0.500158 26.5466 0.500158 25.5054V12.411H0.500178L0.500138 12.4066C0.495197 11.8478 0.622616 11.2926 0.876208 10.7774C1.12961 10.2626 1.50409 9.79789 1.97828 9.41625L11.9762 1.53724L11.9762 1.53726L11.98 1.5342C12.8037 0.871988 13.8785 0.5 15.0001 0.5C16.1216 0.5 17.1964 0.871988 18.0201 1.5342ZM18.3334 27.5036H18.8334V27.0036V19.5126C18.8334 18.9644 18.5906 18.4509 18.1795 18.0813C17.7701 17.7133 17.2252 17.5143 16.6667 17.5143H13.3334C12.7749 17.5143 12.23 17.7133 11.8206 18.0813C11.4095 18.4509 11.1667 18.9644 11.1667 19.5126V27.0036V27.5036H11.6667H18.3334ZM21.1667 27.0036V27.5036H21.6667H25C25.5584 27.5036 26.1033 27.3047 26.5127 26.9366C26.9239 26.567 27.1666 26.0536 27.1666 25.5054V12.3961V12.3954C27.1662 12.1031 27.0965 11.8161 26.9644 11.5542C26.8324 11.2926 26.6422 11.0635 26.4099 10.88L26.4091 10.8794L16.4099 3.01443C16.4099 3.01438 16.4098 3.01433 16.4097 3.01428C16.0132 2.70121 15.5119 2.53417 15.0001 2.53417C14.4884 2.53417 13.9871 2.70114 13.5906 3.01407C13.5905 3.01419 13.5903 3.01431 13.5902 3.01443L3.59101 10.8794L3.59025 10.88C3.35789 11.0635 3.16767 11.2926 3.03572 11.5542C2.90364 11.8161 2.83388 12.1031 2.83347 12.3954V12.3961V25.5054C2.83347 26.0536 3.07619 26.567 3.48736 26.9366L3.80941 26.5784L3.48736 26.9366C3.89677 27.3047 4.44167 27.5036 5.00012 27.5036H8.33343H8.83343V27.0036V19.5126C8.83343 18.4713 9.29308 17.4605 10.1322 16.7062C10.973 15.9504 12.1238 15.5179 13.3334 15.5179H16.6667C17.8763 15.5179 19.0271 15.9504 19.868 16.7062C20.707 17.4605 21.1667 18.4713 21.1667 19.5126V27.0036Z" fill="#3A70FF" stroke="#3A70FF"/>
</svg>
