<svg width="173" height="269" viewBox="0 0 173 269" fill="none" xmlns="http://www.w3.org/2000/svg">
<path d="M0 5C0 2.23858 2.23858 0 5 0H168C170.761 0 173 2.23858 173 5V236C173 238.761 170.761 241 168 241H5C2.23858 241 0 238.761 0 236V5Z" fill="#35405A"/>
<path d="M0 5.75818C0 2.71781 2.69095 0.381182 5.70127 0.807604L142.701 20.2141C145.167 20.5634 147 22.6742 147 25.1647V262.973C147 266.104 144.154 268.465 141.077 267.887L4.07661 242.144C1.71265 241.699 0 239.635 0 237.23V5.75818Z" fill="white"/>
<path d="M86.475 110.825C86.475 111.522 86.4383 112.31 86.365 113.19C86.2917 114.107 86.1633 115.023 85.98 115.94C85.8333 116.893 85.6133 117.81 85.32 118.69C85.0633 119.607 84.715 120.413 84.275 121.11L76.575 119.35V110.825C76.9783 110.862 77.3633 110.898 77.73 110.935C78.0967 110.972 78.4817 110.99 78.885 110.99C79.8383 110.99 80.7 110.88 81.47 110.66C82.2767 110.44 82.68 110.018 82.68 109.395C82.68 108.955 82.4417 108.442 81.965 107.855C81.4883 107.268 80.7367 106.663 79.71 106.04C78.6833 105.417 77.3633 104.83 75.75 104.28C74.1367 103.73 72.2117 103.272 69.975 102.905V103.455C71.1483 104.518 72.0467 105.82 72.67 107.36C73.2933 108.937 73.605 110.55 73.605 112.2C73.605 115.023 72.7433 117.04 71.02 118.25C69.3333 119.46 67.0233 120.065 64.09 120.065C61.8533 120.065 59.91 119.717 58.26 119.02C56.6467 118.323 55.235 117.205 54.025 115.665C52.9983 114.345 52.155 112.677 51.495 110.66C50.8717 108.68 50.56 106.333 50.56 103.62C50.56 101.677 50.7617 99.88 51.165 98.23C51.605 96.6167 52.3383 95.205 53.365 93.995C54.4283 92.8217 55.84 91.905 57.6 91.245C59.3967 90.585 61.6517 90.255 64.365 90.255C67.2617 90.255 70.0483 90.6583 72.725 91.465C75.4017 92.3083 77.7483 93.5733 79.765 95.26C81.8183 96.9467 83.45 99.0733 84.66 101.64C85.87 104.243 86.475 107.305 86.475 110.825ZM54.3 103.345C54.3 104.225 54.7033 104.995 55.51 105.655C56.3167 106.315 57.3067 106.847 58.48 107.25C59.6533 107.653 60.9 107.947 62.22 108.13C63.5767 108.35 64.7867 108.46 65.85 108.46C66.73 108.46 67.4083 108.35 67.885 108.13C68.3617 107.947 68.6 107.488 68.6 106.755C68.6 105.765 68.1783 104.922 67.335 104.225C66.5283 103.528 65.5383 102.942 64.365 102.465C63.2283 102.025 62.0367 101.695 60.79 101.475C59.5433 101.292 58.4983 101.2 57.655 101.2C56.6283 101.2 55.8033 101.365 55.18 101.695C54.5933 102.025 54.3 102.575 54.3 103.345Z" fill="#3A70FF"/>
<path d="M87.1908 129.793C87.1908 132.653 86.7875 134.999 85.9808 136.833C85.1742 138.666 83.9275 140.114 82.2408 141.178C81.1042 141.911 79.8025 142.479 78.3358 142.883C76.9058 143.286 75.2742 143.488 73.4408 143.488C71.9008 143.488 70.3242 143.341 68.7108 143.048C67.0975 142.754 65.5392 142.333 64.0358 141.783C62.5325 141.233 61.1025 140.573 59.7458 139.803C58.4258 139.069 57.2708 138.244 56.2808 137.328C54.4475 135.678 53.1458 133.789 52.3758 131.663C51.6425 129.536 51.2758 126.951 51.2758 123.908C51.2758 120.974 51.6058 118.591 52.2658 116.758C52.9258 114.961 53.9892 113.531 55.4558 112.468C56.5192 111.588 57.8575 110.928 59.4708 110.488C61.1208 110.084 63.0275 109.883 65.1908 109.883C67.1342 109.883 69.0225 110.066 70.8558 110.433C72.7258 110.799 74.4675 111.331 76.0808 112.028C77.6942 112.761 79.1608 113.641 80.4808 114.668C81.8008 115.694 82.9192 116.868 83.8358 118.188C84.9358 119.728 85.7608 121.433 86.3108 123.303C86.8975 125.209 87.1908 127.373 87.1908 129.793ZM55.1258 123.798C55.1258 124.531 55.5108 125.228 56.2808 125.888C57.0508 126.584 58.0592 127.226 59.3058 127.813C60.5892 128.399 62.0375 128.913 63.6508 129.353C65.3008 129.829 66.9875 130.233 68.7108 130.563C70.4708 130.893 72.1758 131.149 73.8258 131.333C75.5125 131.516 77.0525 131.608 78.4458 131.608C80.3158 131.608 81.5992 131.443 82.2958 131.113C83.0292 130.783 83.3958 130.306 83.3958 129.683C83.3958 128.913 83.0108 128.179 82.2408 127.483C81.5075 126.786 80.5175 126.144 79.2708 125.558C78.0608 124.971 76.6492 124.421 75.0358 123.908C73.4225 123.431 71.7725 123.009 70.0858 122.643C68.3992 122.313 66.7308 122.056 65.0808 121.873C63.4308 121.689 61.9275 121.598 60.5708 121.598C58.5175 121.598 57.0875 121.799 56.2808 122.203C55.5108 122.606 55.1258 123.138 55.1258 123.798Z" fill="#3A70FF"/>
<path d="M79.0508 159.953V144.058L74.3208 143.123C74.7242 143.966 75.0542 144.883 75.3108 145.873C75.6042 146.899 75.7508 148.109 75.7508 149.503C75.7508 151.703 75.4392 153.536 74.8158 155.003C74.1925 156.469 73.3675 157.643 72.3408 158.523C71.3142 159.439 70.1592 160.081 68.8758 160.448C67.6292 160.851 66.3825 161.053 65.1358 161.053C63.1558 161.053 61.3225 160.631 59.6358 159.788C57.9492 158.981 56.4825 157.808 55.2358 156.268C53.9892 154.764 53.0175 152.913 52.3208 150.713C51.6242 148.513 51.2758 146.038 51.2758 143.288C51.2758 142.224 51.3492 141.198 51.4958 140.208C51.6058 139.218 51.8258 138.246 52.1558 137.293C52.5225 136.376 52.9992 135.441 53.5858 134.488C54.1725 133.571 54.9425 132.618 55.8958 131.628L63.5408 133.223V141.913C62.9908 141.839 62.5142 141.784 62.1108 141.748C61.7075 141.711 61.0658 141.693 60.1858 141.693C58.3525 141.693 57.0508 141.931 56.2808 142.408C55.5108 142.884 55.1258 143.563 55.1258 144.443C55.1258 145.359 55.4742 146.148 56.1708 146.808C56.8675 147.468 57.7292 147.999 58.7558 148.403C59.8192 148.806 60.9558 149.099 62.1658 149.283C63.3758 149.466 64.5125 149.558 65.5758 149.558C66.3092 149.558 67.0058 149.503 67.6658 149.393C68.3625 149.283 68.9675 149.099 69.4808 148.843C69.9942 148.586 70.3975 148.238 70.6908 147.798C71.0208 147.358 71.1858 146.808 71.1858 146.148C71.1858 145.488 70.9842 144.791 70.5808 144.058C70.1775 143.324 69.3892 142.609 68.2158 141.913V135.148L86.6408 139.108V161.548L79.0508 159.953Z" fill="#3A70FF"/>
<path d="M71.7958 154.323V171.648L66.7908 170.548V153.168L71.7958 154.323Z" fill="#3A70FF"/>
<path d="M80.9758 166.533C81.3058 168.806 81.9842 170.859 83.0108 172.693C84.0375 174.563 85.2475 176.048 86.6408 177.148V185.563L51.7158 178.083V166.203L77.2908 171.648V165.708L80.9758 166.533Z" fill="#3A70FF"/>
</svg>
