<svg width="70" height="70" viewBox="0 0 70 70" fill="none" xmlns="http://www.w3.org/2000/svg">
<path d="M12.0094 5.6C9.99939 8.1984 9.99939 11.6853 9.99939 18.6667V29.9675C12.1494 29.8667 14.5694 29.8667 17.1744 29.8667H52.8245C55.4245 29.8667 57.8495 29.8667 59.9995 29.9675V18.6667C59.9995 11.6853 59.9995 8.1984 57.9895 5.6C56.673 3.89753 54.7796 2.48377 52.4995 1.5008C49.0195 -2.22524e-07 44.3495 0 34.9995 0C25.6494 0 20.9794 -2.22524e-07 17.4994 1.5008C15.2193 2.48377 13.3259 3.89753 12.0094 5.6ZM6.24939 48.4997C3.73938 48.4251 2.21938 48.1712 1.17937 47.3237C-0.305629 46.1141 -0.110628 44.4341 0.279373 41.0704C0.554374 38.6437 1.18437 37.0085 2.61438 35.7877C5.17438 33.6 9.28939 33.6 17.5244 33.6H52.4745C60.7095 33.6 64.8245 33.6 67.3845 35.7877C68.8145 37.0048 69.4445 38.64 69.7245 41.0704C70.1095 44.4304 70.3045 46.1141 68.8195 47.3237C67.7795 48.1712 66.2595 48.4251 63.7495 48.4997V67.2C63.7495 67.9426 63.3544 68.6548 62.6512 69.1799C61.9479 69.705 60.9941 70 59.9995 70C59.0049 70 58.0511 69.705 57.3478 69.1799C56.6446 68.6548 56.2495 67.9426 56.2495 67.2V48.5333H13.7494V67.2C13.7494 67.9426 13.3543 68.6548 12.6511 69.1799C11.9478 69.705 10.994 70 9.99939 70C9.00483 70 8.051 69.705 7.34774 69.1799C6.64447 68.6548 6.24939 67.9426 6.24939 67.2V48.496V48.4997Z" fill="white"/>
</svg>
