<svg width="85" height="132" viewBox="0 0 85 132" fill="none" xmlns="http://www.w3.org/2000/svg">
<path d="M0 5C0 2.23858 2.23858 0 5 0H79.6936C82.4551 0 84.6936 2.23858 84.6936 5V113.266C84.6936 116.027 82.4551 118.266 79.6936 118.266H5C2.23858 118.266 0 116.027 0 113.266V5Z" fill="#35405A"/>
<path d="M0 5.76281C0 2.72084 2.69364 0.383752 5.70521 0.812797L67.4278 9.60615C69.8919 9.9572 71.7225 12.0672 71.7225 14.5562V125.967C71.7225 129.1 68.8732 131.462 65.7941 130.88L4.0715 119.215C1.70993 118.769 0 116.705 0 114.302V5.76281Z" fill="#3A70FF"/>
<path d="M50.9501 47.6C50.9501 48.1067 50.9235 48.68 50.8701 49.32C50.8168 49.9867 50.7235 50.6533 50.5901 51.32C50.4835 52.0133 50.3235 52.68 50.1101 53.32C49.9235 53.9867 49.6701 54.5733 49.3501 55.08L43.7501 53.8V47.6C44.0435 47.6267 44.3235 47.6533 44.5901 47.68C44.8568 47.7067 45.1368 47.72 45.4301 47.72C46.1235 47.72 46.7501 47.64 47.3101 47.48C47.8968 47.32 48.1901 47.0133 48.1901 46.56C48.1901 46.24 48.0168 45.8667 47.6701 45.44C47.3235 45.0133 46.7768 44.5733 46.0301 44.12C45.2835 43.6667 44.3235 43.24 43.1501 42.84C41.9768 42.44 40.5768 42.1067 38.9501 41.84V42.24C39.8035 43.0133 40.4568 43.96 40.9101 45.08C41.3635 46.2267 41.5901 47.4 41.5901 48.6C41.5901 50.6533 40.9635 52.12 39.7101 53C38.4835 53.88 36.8035 54.32 34.6701 54.32C33.0435 54.32 31.6301 54.0667 30.4301 53.56C29.2568 53.0533 28.2301 52.24 27.3501 51.12C26.6035 50.16 25.9901 48.9467 25.5101 47.48C25.0568 46.04 24.8301 44.3333 24.8301 42.36C24.8301 40.9467 24.9768 39.64 25.2701 38.44C25.5901 37.2667 26.1235 36.24 26.8701 35.36C27.6435 34.5067 28.6701 33.84 29.9501 33.36C31.2568 32.88 32.8968 32.64 34.8701 32.64C36.9768 32.64 39.0035 32.9333 40.9501 33.52C42.8968 34.1333 44.6035 35.0533 46.0701 36.28C47.5635 37.5067 48.7501 39.0533 49.6301 40.92C50.5101 42.8133 50.9501 45.04 50.9501 47.6ZM27.5501 42.16C27.5501 42.8 27.8435 43.36 28.4301 43.84C29.0168 44.32 29.7368 44.7067 30.5901 45C31.4435 45.2933 32.3501 45.5067 33.3101 45.64C34.2968 45.8 35.1768 45.88 35.9501 45.88C36.5901 45.88 37.0835 45.8 37.4301 45.64C37.7768 45.5067 37.9501 45.1733 37.9501 44.64C37.9501 43.92 37.6435 43.3067 37.0301 42.8C36.4435 42.2933 35.7235 41.8667 34.8701 41.52C34.0435 41.2 33.1768 40.96 32.2701 40.8C31.3635 40.6667 30.6035 40.6 29.9901 40.6C29.2435 40.6 28.6435 40.72 28.1901 40.96C27.7635 41.2 27.5501 41.6 27.5501 42.16Z" fill="white"/>
<path d="M51.4965 62.094C51.4965 64.174 51.2032 65.8806 50.6165 67.214C50.0299 68.5473 49.1232 69.6006 47.8965 70.374C47.0699 70.9073 46.1232 71.3206 45.0565 71.614C44.0165 71.9073 42.8299 72.054 41.4965 72.054C40.3765 72.054 39.2299 71.9473 38.0565 71.734C36.8832 71.5206 35.7499 71.214 34.6565 70.814C33.5632 70.414 32.5232 69.934 31.5365 69.374C30.5765 68.8406 29.7365 68.2406 29.0165 67.574C27.6832 66.374 26.7365 65.0006 26.1765 63.454C25.6432 61.9073 25.3765 60.0273 25.3765 57.814C25.3765 55.6806 25.6165 53.9473 26.0965 52.614C26.5765 51.3073 27.3499 50.2673 28.4165 49.494C29.1899 48.854 30.1632 48.374 31.3365 48.054C32.5365 47.7606 33.9232 47.614 35.4965 47.614C36.9099 47.614 38.2832 47.7473 39.6165 48.014C40.9765 48.2806 42.2432 48.6673 43.4165 49.174C44.5899 49.7073 45.6565 50.3473 46.6165 51.094C47.5765 51.8406 48.3899 52.694 49.0565 53.654C49.8565 54.774 50.4565 56.014 50.8565 57.374C51.2832 58.7606 51.4965 60.334 51.4965 62.094ZM28.1765 57.734C28.1765 58.2673 28.4565 58.774 29.0165 59.254C29.5765 59.7606 30.3099 60.2273 31.2165 60.654C32.1499 61.0806 33.2032 61.454 34.3765 61.774C35.5765 62.1206 36.8032 62.414 38.0565 62.654C39.3365 62.894 40.5765 63.0806 41.7765 63.214C43.0032 63.3473 44.1232 63.414 45.1365 63.414C46.4965 63.414 47.4299 63.294 47.9365 63.054C48.4699 62.814 48.7365 62.4673 48.7365 62.014C48.7365 61.454 48.4565 60.9206 47.8965 60.414C47.3632 59.9073 46.6432 59.4406 45.7365 59.014C44.8565 58.5873 43.8299 58.1873 42.6565 57.814C41.4832 57.4673 40.2832 57.1606 39.0565 56.894C37.8299 56.654 36.6165 56.4673 35.4165 56.334C34.2165 56.2006 33.1232 56.134 32.1365 56.134C30.6432 56.134 29.6032 56.2806 29.0165 56.574C28.4565 56.8673 28.1765 57.254 28.1765 57.734Z" fill="white"/>
<path d="M45.5765 84.8861V73.3261L42.1365 72.6461C42.4299 73.2594 42.6699 73.9261 42.8565 74.6461C43.0699 75.3928 43.1765 76.2728 43.1765 77.2861C43.1765 78.8861 42.9499 80.2194 42.4965 81.2861C42.0432 82.3528 41.4432 83.2061 40.6965 83.8461C39.9499 84.5128 39.1099 84.9794 38.1765 85.2461C37.2699 85.5394 36.3632 85.6861 35.4565 85.6861C34.0165 85.6861 32.6832 85.3794 31.4565 84.7661C30.2299 84.1794 29.1632 83.3261 28.2565 82.2061C27.3499 81.1128 26.6432 79.7661 26.1365 78.1661C25.6299 76.5661 25.3765 74.7661 25.3765 72.7661C25.3765 71.9928 25.4299 71.2461 25.5365 70.5261C25.6165 69.8061 25.7765 69.0994 26.0165 68.4061C26.2832 67.7394 26.6299 67.0594 27.0565 66.3661C27.4832 65.6994 28.0432 65.0061 28.7365 64.2861L34.2965 65.4461V71.7661C33.8965 71.7128 33.5499 71.6728 33.2565 71.6461C32.9632 71.6194 32.4965 71.6061 31.8565 71.6061C30.5232 71.6061 29.5765 71.7794 29.0165 72.1261C28.4565 72.4728 28.1765 72.9661 28.1765 73.6061C28.1765 74.2728 28.4299 74.8461 28.9365 75.3261C29.4432 75.8061 30.0699 76.1928 30.8165 76.4861C31.5899 76.7794 32.4165 76.9928 33.2965 77.1261C34.1765 77.2594 35.0032 77.3261 35.7765 77.3261C36.3099 77.3261 36.8165 77.2861 37.2965 77.2061C37.8032 77.1261 38.2432 76.9928 38.6165 76.8061C38.9899 76.6194 39.2832 76.3661 39.4965 76.0461C39.7365 75.7261 39.8565 75.3261 39.8565 74.8461C39.8565 74.3661 39.7099 73.8594 39.4165 73.3261C39.1232 72.7928 38.5499 72.2728 37.6965 71.7661V66.8461L51.0965 69.7261V86.0461L45.5765 84.8861Z" fill="white"/>
<path d="M40.5144 81.5062V94.1062L36.8744 93.3062V80.6662L40.5144 81.5062Z" fill="white"/>
<path d="M46.9765 90.7793C47.2165 92.4326 47.7099 93.926 48.4565 95.2593C49.2032 96.6193 50.0832 97.6993 51.0965 98.4993V104.619L25.6965 99.1793V90.5393L44.2965 94.4993V90.1793L46.9765 90.7793Z" fill="white"/>
</svg>
