<svg width="20" height="20" viewBox="0 0 20 20" fill="none" xmlns="http://www.w3.org/2000/svg">
<path fill-rule="evenodd" clip-rule="evenodd" d="M12.3572 9.99972L16.4706 5.8863C16.803 5.55396 16.805 5.01938 16.4765 4.6909L15.309 3.52343C14.9665 3.18089 14.4453 3.19756 14.1136 3.52928L10.0002 7.64269L5.88679 3.52928C5.55445 3.19694 5.01987 3.19494 4.69138 3.52343L3.52391 4.6909C3.18138 5.03343 3.19805 5.55458 3.52977 5.8863L7.64318 9.99972L3.52977 14.1131C3.19743 14.4455 3.19543 14.9801 3.52391 15.3085L4.69138 16.476C5.03392 16.8185 5.55507 16.8019 5.88679 16.4702L10.0002 12.3567L14.1136 16.4702C14.446 16.8025 14.9805 16.8045 15.309 16.476L16.4765 15.3085C16.819 14.966 16.8024 14.4449 16.4706 14.1131L12.3572 9.99972Z" fill="#9C9C9C"/>
</svg>
