<svg width="40" height="40" viewBox="0 0 40 40" fill="none" xmlns="http://www.w3.org/2000/svg">
<path d="M6.86251 3.2C5.71394 4.6848 5.71394 6.67733 5.71394 10.6667V17.1243C6.94251 17.0667 8.32538 17.0667 9.81395 17.0667H30.1854C31.6711 17.0667 33.0569 17.0667 34.2854 17.1243V10.6667C34.2854 6.67733 34.2854 4.6848 33.1369 3.2C32.3846 2.22716 31.3026 1.41929 29.9997 0.8576C28.0111 -1.27157e-07 25.3426 0 19.9997 0C14.6568 0 11.9882 -1.27157e-07 9.99966 0.8576C8.69675 1.41929 7.61479 2.22716 6.86251 3.2ZM3.57108 27.7141C2.13679 27.6715 1.26822 27.5264 0.673928 27.0421C-0.174645 26.3509 -0.0632158 25.3909 0.159642 23.4688C0.316785 22.0821 0.676785 21.1477 1.49393 20.4501C2.95679 19.2 5.30823 19.2 10.0139 19.2H29.9854C34.6911 19.2 37.0426 19.2 38.5054 20.4501C39.3226 21.1456 39.6826 22.08 39.8426 23.4688C40.0626 25.3888 40.174 26.3509 39.3254 27.0421C38.7312 27.5264 37.8626 27.6715 36.4283 27.7141V38.4C36.4283 38.8243 36.2025 39.2313 35.8007 39.5314C35.3988 39.8314 34.8538 40 34.2854 40C33.7171 40 33.1721 39.8314 32.7702 39.5314C32.3683 39.2313 32.1426 38.8243 32.1426 38.4V27.7333H7.8568V38.4C7.8568 38.8243 7.63104 39.2313 7.22917 39.5314C6.82731 39.8314 6.28226 40 5.71394 40C5.14562 40 4.60057 39.8314 4.19871 39.5314C3.79684 39.2313 3.57108 38.8243 3.57108 38.4V27.712V27.7141Z" fill="#3A70FF"/>
</svg>
