<svg width="70" height="70" viewBox="0 0 70 70" fill="none" xmlns="http://www.w3.org/2000/svg">
<path d="M14 70L19.25 53.5938C19.775 51.9167 20.6208 50.5852 21.7875 49.5994C22.9542 48.6135 24.2667 48.1221 25.725 48.125H31.5V30.5156C22.575 30.151 15.0932 28.5104 9.0545 25.5938C3.01583 22.6771 -0.00233198 19.25 1.35187e-06 15.3125C1.35187e-06 11.0833 3.4125 7.47396 10.2375 4.48438C17.0625 1.49479 25.3167 0 35 0C44.7417 0 53.011 1.49479 59.808 4.48438C66.605 7.47396 70.0023 11.0833 70 15.3125C70 19.25 66.9807 22.6771 60.942 25.5938C54.9033 28.5104 47.4227 30.151 38.5 30.5156V48.125H44.275C45.675 48.125 46.9735 48.6179 48.1705 49.6037C49.3675 50.5896 50.2273 51.9196 50.75 53.5938L56 70H49L44.8 56.875H25.2L21 70H14Z" fill="#3A70FF"/>
</svg>
